# xmcd
#
# Track frame offsets:
#	182
#	16065
#	35330
#	50275
#	65922
#	85710
#	102450
#	117730
#	133010
#	149997
#	167160
#	184315
#
# Disc length: 2652 seconds
#
# Revision: 13
# Processed by: cddbd v1.5.2PL0 Copyright (c) Steve Scherf et al.
# Submitted via: EasyCDDAExtractor 15.3.0.1
#
DISCID=b40a5a0c
DTITLE=Luis Miguel - Romance
DYEAR=1991
DGENRE=Latin
TTITLE0=No Me Platiques Mas
TTITLE1=Inolvidable
TTITLE2=La Puerta
TTITLE3=La Barca
TTITLE4=Te Extraño
TTITLE5=Usted
TTITLE6=Contigo En La Distancia
TTITLE7=Mucho Corazon
TTITLE8=La Mentira
TTITLE9=Cuando Vuelva A Tu Lado
TTITLE10=No Se Tu
TTITLE11=Como
EXTD=YEAR: 1991
EXTT0=
EXTT1=
EXTT2=
EXTT3=
EXTT4=
EXTT5=
EXTT6=
EXTT7=
EXTT8=
EXTT9=
EXTT10=
EXTT11=
PLAYORDER=
